<?xml version="1.0" encoding="UTF-8" standalone="no"?>
<svg width="16px" height="16px" viewBox="0 0 16 16" version="1.1" xmlns="http://www.w3.org/2000/svg" xmlns:xlink="http://www.w3.org/1999/xlink" xmlns:sketch="http://www.bohemiancoding.com/sketch/ns">
    <!-- Generator: Sketch 3.3 (11970) - http://www.bohemiancoding.com/sketch -->
    <title>bug</title>
    <desc>Created with Sketch.</desc>
    <defs></defs>
    <g id="Page-1" stroke="none" stroke-width="1" fill="none" fill-rule="evenodd" sketch:type="MSPage">
        <g id="bug" sketch:type="MSArtboardGroup">
            <g id="Bug" sketch:type="MSLayerGroup" transform="translate(1.000000, 1.000000)">
                <path d="M13,14 L1,14 C0.448,14 0,13.552 0,13 L0,1 C0,0.448 0.448,0 1,0 L13,0 C13.552,0 14,0.448 14,1 L14,13 C14,13.552 13.552,14 13,14" id="Fill-1" fill="#D04437" sketch:type="MSShapeGroup"></path>
                <path d="M10,7 C10,8.657 8.657,10 7,10 C5.343,10 4,8.657 4,7 C4,5.343 5.343,4 7,4 C8.657,4 10,5.343 10,7" id="Fill-2" fill="#FFFFFF" sketch:type="MSShapeGroup"></path>
            </g>
        </g>
    </g>
</svg>